<?xml version="1.0" standalone="no"?>
<!DOCTYPE svg PUBLIC "-//W3C//DTD SVG 1.1//EN" "http://www.w3.org/Graphics/SVG/1.1/DTD/svg11.dtd" >
<svg xmlns="http://www.w3.org/2000/svg">
<metadata></metadata>
<defs>
<font id="ValenciaLight" horiz-adv-x="282" >
<font-face units-per-em="2048" ascent="1536" descent="-512" />
<missing-glyph horiz-adv-x="292" />
<glyph horiz-adv-x="0" />
<glyph horiz-adv-x="2048" />
<glyph unicode=" "  horiz-adv-x="292" />
<glyph unicode="&#x09;" horiz-adv-x="292" />
<glyph unicode="&#xa0;" horiz-adv-x="292" />
<glyph unicode="&#x22;" horiz-adv-x="215" d="M41 1094v219h39v-219h-39zM137 1094v219h39v-219h-39z" />
<glyph unicode="#" horiz-adv-x="327" d="M35 231v39h47v283h-47v37h47v418h37v-418h78v418h39v-418h47v-37h-47v-283h47v-39h-47v-231h-39v231h-78v-231h-37v231h-47zM119 270h78v283h-78v-283z" />
<glyph unicode="$" d="M45 123v221h41v-252q0 -25 16 -41t39 -16q24 0 41 16.5t17 40.5v160q0 48 -14.5 104t-25 82t-38.5 92l-15 35q-20 49 -31 78t-21 75t-9 87v332q0 57 18.5 90t65.5 37v88h27v-88q43 -8 59 -39.5t16 -85.5v-203h-41v235q0 23 -13.5 38.5t-37.5 15.5q-23 0 -38 -14.5 t-15 -39.5v-366q0 -43 11.5 -91t24 -79t36.5 -86q2 -2 2 -4q27 -61 39.5 -93t26.5 -89t14 -111v-129q0 -119 -84 -127v-117h-27v117q-84 8 -84 127z" />
<glyph unicode="&#x26;" horiz-adv-x="319" d="M45 158v286q0 54 47 80q-47 26 -47 82v449q0 40 28 68t68 28h80v-39h-80q-23 0 -39 -16t-16 -41v-455q0 -23 16 -39t39 -16h56v67h43v-67h34v-41h-34v-443h-99q-40 0 -68 28.5t-28 68.5zM86 158q0 -23 16 -39.5t39 -16.5h56v402h-56q-23 0 -39 -16.5t-16 -38.5v-291z" />
<glyph unicode="'" horiz-adv-x="186" d="M41 1094l68 219h45l-68 -219h-45z" />
<glyph unicode="(" horiz-adv-x="194" d="M45 -16v1265q0 39 28.5 68t69.5 29h13v-41h-13q-25 0 -41 -16.5t-16 -39.5v-1265q0 -25 16 -41.5t41 -16.5h13v-41h-13q-41 0 -69.5 29t-28.5 70z" />
<glyph unicode=")" horiz-adv-x="198" d="M45 -72h12q25 0 41.5 16.5t16.5 39.5v1263q0 25 -16.5 41.5t-41.5 16.5h-12v38h12q41 0 70 -28t29 -68v-1263q0 -41 -29 -70t-70 -29h-12v43z" />
<glyph unicode="," horiz-adv-x="143" d="M4 -104l68 217h45l-68 -217h-45z" />
<glyph unicode="-" d="M57 475v43h166v-43h-166z" />
<glyph unicode="." horiz-adv-x="241" d="M100 0v123h45v-123h-45z" />
<glyph unicode="/" horiz-adv-x="270" d="M16 -141l189 1474h43l-189 -1474h-43z" />
<glyph unicode="0" horiz-adv-x="305" d="M55 92v1075q0 40 29.5 68.5t69.5 28.5t68 -28.5t28 -68.5v-1075q0 -41 -28 -69.5t-68 -28.5t-69.5 28.5t-29.5 69.5zM96 92q0 -25 16.5 -41t41.5 -16q23 0 38 16.5t15 40.5v604l-111 -446v-158zM96 350l111 447v370q0 25 -15 41.5t-38 16.5q-25 0 -41.5 -16.5 t-16.5 -41.5v-817z" />
<glyph unicode="1" horiz-adv-x="210" d="M84 0v1257h43v-1257h-43z" />
<glyph unicode="2" horiz-adv-x="305" d="M55 0v252q0 115 66 262l20 47q21 49 33.5 81t22.5 77t10 86v366q0 24 -14 39t-37 15q-24 0 -38 -15t-14 -39v-235h-41v192q0 66 19 101t74 35q94 0 94 -131v-328q0 -95 -60 -234l-22 -53q-25 -57 -36 -86.5t-23.5 -81t-12.5 -98.5v-211h154v-41h-195z" />
<glyph unicode="3" horiz-adv-x="305" d="M55 92v256h41v-256q0 -24 16 -40.5t40 -16.5t40.5 16.5t16.5 40.5v305q0 24 -15.5 41t-39.5 17h-66v41h66q25 0 40 16t15 41v618q0 25 -14.5 39.5t-38.5 14.5q-23 0 -37.5 -14.5t-14.5 -39.5v-235h-41v235q0 40 26 66.5t67 26.5q40 0 67 -26.5t27 -66.5v-614 q0 -54 -47 -82q21 -11 34 -33.5t13 -48.5v-301q0 -41 -28.5 -69.5t-69.5 -28.5q-40 0 -68.5 28.5t-28.5 69.5z" />
<glyph unicode="4" horiz-adv-x="305" d="M37 442v815h41v-815q0 -24 15.5 -40.5t39.5 -16.5h55v872h43v-872h37v-39h-37v-346h-43v346h-55q-40 0 -68 28t-28 68z" />
<glyph unicode="5" horiz-adv-x="305" d="M55 137v207h41v-252q0 -25 15.5 -41t40.5 -16q23 0 39 16t16 41v170q0 47 -12.5 98.5t-23.5 81t-36 86.5l-20 50q-2 2 -2 4q-58 135 -58 233v442h187v-40h-146v-402q-1 -42 11.5 -92t23 -75t37.5 -89l31 -74q48 -113 51 -223v-170q0 -41 -29 -69.5t-69 -28.5 q-57 0 -77 39t-20 104z" />
<glyph unicode="6" horiz-adv-x="305" d="M55 92v1079q0 40 27.5 66.5t67.5 26.5t66 -26.5t26 -66.5v-235h-43v235q0 25 -13 39.5t-36 14.5q-25 0 -39.5 -14.5t-14.5 -39.5v-684h58q40 0 68 -28.5t28 -69.5v-297q0 -41 -28 -69.5t-68 -28.5q-41 0 -70 28.5t-29 69.5zM96 92q0 -25 16.5 -41t41.5 -16 q22 0 37.5 16.5t15.5 40.5v297q0 24 -15.5 40.5t-37.5 16.5h-58v-354z" />
<glyph unicode="7" horiz-adv-x="305" d="M49 1219v38h205l-160 -1257h-43q85 654 156 1219h-158z" />
<glyph unicode="8" horiz-adv-x="305" d="M55 92v295q0 57 49 84q-45 22 -45 76v624q0 40 27.5 66.5t67.5 26.5t66 -26.5t26 -66.5v-624q0 -53 -43 -78q47 -26 47 -82v-295q0 -41 -28 -69.5t-68 -28.5q-41 0 -70 28.5t-29 69.5zM96 92q0 -25 16.5 -41t41.5 -16q22 0 37.5 16.5t15.5 40.5v299q0 25 -15.5 41.5 t-37.5 16.5q-25 0 -41.5 -16.5t-16.5 -41.5v-299zM100 541q0 -24 15 -39t39 -15q23 0 36 14.5t13 39.5v630q0 25 -13 39.5t-36 14.5q-24 0 -39 -15t-15 -39v-630z" />
<glyph unicode="9" horiz-adv-x="305" d="M55 545v620q0 40 28.5 69.5t68.5 29.5t69 -29t29 -70v-1079q0 -39 -27.5 -65.5t-66.5 -26.5q-41 0 -68 26t-27 66v233h43v-233q0 -25 13.5 -39t38.5 -14q23 0 37 14t14 39v360h-55q-40 0 -68.5 29t-28.5 70zM96 545q0 -25 16.5 -41.5t39.5 -16.5h55v678q0 25 -16 41.5 t-39 16.5t-39.5 -16.5t-16.5 -41.5v-620z" />
<glyph unicode=":" horiz-adv-x="237" d="M100 0v123h45v-123h-45zM100 821v123h45v-123h-45z" />
<glyph unicode=";" horiz-adv-x="235" d="M41 -104l68 217h45l-68 -217h-45zM100 819v125h45v-125h-45z" />
<glyph unicode="@" horiz-adv-x="442" d="M59 -51v948q0 38 27.5 65t65.5 27h143q38 0 65 -27t27 -65v-854q0 -35 -28 -62.5t-62 -27.5h-72q-38 0 -65 26t-27 62v616q0 40 27 67.5t65 27.5t65 -27.5t27 -67.5v-620h-26v620q0 28 -19 47t-47 19t-46.5 -19t-18.5 -47v-616q0 -27 19 -45.5t46 -18.5h70q27 0 46 19.5 t19 46.5v854q0 28 -18.5 47t-46.5 19h-143q-28 0 -47 -19t-19 -47v-948q0 -28 19 -47t47 -19h174v-28h-174q-38 0 -65.5 27.5t-27.5 66.5z" />
<glyph unicode="A" horiz-adv-x="299" d="M23 348v41h36l66 871h57l92 -1260h-41l-24 348h-113l-24 -348h-41l26 348h-34zM98 389h107l-53 774z" />
<glyph unicode="B" horiz-adv-x="294" d="M10 350v39h39v871h96q40 0 69.5 -29.5t29.5 -67.5v-712q0 -25 -13.5 -47.5t-35.5 -32.5q49 -27 49 -82v-191q0 -41 -29.5 -69.5t-69.5 -28.5h-96v350h-39zM90 41h55q23 0 39.5 16.5t16.5 40.5v195q0 25 -16.5 41t-39.5 16h-55v-309zM90 389h55q23 0 39.5 17t16.5 40v717 q0 23 -16.5 39.5t-39.5 16.5h-55v-830z" />
<glyph unicode="C" horiz-adv-x="280" d="M45 92v1075q0 40 28.5 69.5t69.5 29.5q38 0 67.5 -29.5t29.5 -69.5v-229h-43v229q0 24 -16 41t-38 17q-25 0 -41 -16.5t-16 -41.5v-1075q0 -24 16.5 -40.5t40.5 -16.5q22 0 38 17t16 40v258h43v-258q0 -41 -29 -69.5t-68 -28.5q-41 0 -69.5 28.5t-28.5 69.5z" />
<glyph unicode="D" horiz-adv-x="284" d="M45 0v1260h96q40 0 69.5 -29.5t29.5 -67.5v-1065q0 -41 -29.5 -69.5t-69.5 -28.5h-96zM86 41h55q23 0 39.5 16.5t16.5 40.5v1065q0 23 -16.5 39.5t-39.5 16.5h-55v-1178z" />
<glyph unicode="E" horiz-adv-x="237" d="M10 350v39h39v871h154v-41h-113v-830h105v-39h-105v-309h113v-41h-154v350h-39z" />
<glyph unicode="F" horiz-adv-x="229" d="M10 350v39h37v868h154v-38h-113v-830h105v-39h-105v-350h-41v350h-37z" />
<glyph unicode="G" horiz-adv-x="280" d="M45 92v1075q0 40 28.5 69.5t69.5 29.5q40 0 68.5 -29.5t28.5 -69.5v-229h-41v229q0 25 -15.5 41.5t-40.5 16.5t-41 -16.5t-16 -41.5v-1075q0 -24 16.5 -40.5t40.5 -16.5t40 16.5t16 40.5v246h-58v39h99v-285q0 -41 -28.5 -69.5t-68.5 -28.5q-41 0 -69.5 28.5t-28.5 69.5z " />
<glyph unicode="H" horiz-adv-x="272" d="M8 350v39h39v868h41v-868h98v868h41v-1257h-41v350h-98v-350h-41v350h-39z" />
<glyph unicode="I" horiz-adv-x="145" d="M43 0v1260h41v-1260h-41z" />
<glyph unicode="J" horiz-adv-x="253" d="M33 86v236h41v-236q0 -25 14 -39t37 -14t38 15t15 38v1174h41v-1174q0 -40 -27 -66t-67 -26q-41 0 -66.5 26t-25.5 66z" />
<glyph unicode="K" horiz-adv-x="315" d="M10 350v39h37v868h41v-868h45l115 868h39q-44 -314 -119 -884q22 -62 63 -186t62 -187h-43q-19 58 -58 175t-57 175h-47v-350h-41v350h-37z" />
<glyph unicode="L" horiz-adv-x="217" d="M45 0v1260h41v-1219h115v-41h-156z" />
<glyph unicode="M" horiz-adv-x="446" d="M49 0v1167q0 40 27.5 68.5t66.5 28.5q56 0 80 -47q21 47 78 47q40 0 68 -28.5t28 -68.5v-1167h-43v1165q0 24 -15.5 41t-39.5 17q-23 0 -39 -16.5t-16 -41.5v-1165h-41v1165q0 26 -17.5 42t-40.5 16t-38 -17t-15 -41v-1165h-43z" />
<glyph unicode="N" horiz-adv-x="290" d="M45 0v1257h96q40 0 69.5 -28.5t29.5 -67.5v-1161h-43v1161q0 25 -16.5 41.5t-39.5 16.5h-55v-1219h-41z" />
<glyph unicode="O" d="M45 92v1075q0 40 29 69.5t69 29.5q38 0 67.5 -29.5t29.5 -69.5v-1075q0 -41 -29 -69.5t-68 -28.5q-40 0 -69 28.5t-29 69.5zM86 92q0 -24 16.5 -40.5t40.5 -16.5q23 0 38.5 16.5t15.5 40.5v1075q0 25 -15.5 41.5t-38.5 16.5q-25 0 -41 -16.5t-16 -41.5v-1075z" />
<glyph unicode="P" horiz-adv-x="292" d="M10 350v39h37v871h98q39 0 68 -29t29 -68v-717q0 -40 -28.5 -68t-68.5 -28h-57v-350h-41v350h-37zM88 389h57q23 0 38.5 16.5t15.5 40.5v717q0 23 -15.5 39.5t-38.5 16.5h-57v-830z" />
<glyph unicode="Q" horiz-adv-x="284" d="M45 92v1075q0 40 29 69.5t69 29.5q38 0 67.5 -29.5t29.5 -69.5v-1075q0 -35 -22.5 -61.5t-53.5 -32.5v-29q0 -23 16.5 -38t38.5 -15h14v-37h-14q-40 0 -69 25t-29 65v27q-33 8 -54.5 34.5t-21.5 61.5zM86 92q0 -24 16.5 -40.5t40.5 -16.5q23 0 38.5 16.5t15.5 40.5v1075 q0 25 -15.5 41.5t-38.5 16.5q-25 0 -41 -16.5t-16 -41.5v-1075z" />
<glyph unicode="R" horiz-adv-x="294" d="M12 350v39h35v871h98q39 0 68 -29t29 -68v-712q0 -56 -47 -82q47 -23 47 -80v-289h-41v293q0 25 -16.5 41t-39.5 16h-55v-350h-43v350h-35zM90 389h55q23 0 39.5 17t16.5 40v717q0 23 -16.5 39.5t-39.5 16.5h-55v-830z" />
<glyph unicode="S" d="M45 129v215h41v-252q0 -24 15.5 -40.5t39.5 -16.5t41 16.5t17 40.5v160q0 104 -72 264l-21 47q-61 137 -61 242v328q0 63 20 97t74 34q41 0 66.5 -26.5t25.5 -66.5v-235h-41v235q0 25 -14 39.5t-37 14.5t-38 -14.5t-15 -39.5v-366q0 -63 18.5 -121.5t53.5 -134.5 q2 -5 16 -38t17.5 -41.5t14.5 -37t14.5 -44t9.5 -40.5t8 -48t2 -48v-119q0 -139 -99 -139q-96 0 -96 135z" />
<glyph unicode="T" horiz-adv-x="231" d="M18 1219v38h193v-38h-76v-1219h-43v1219h-74z" />
<glyph unicode="U" horiz-adv-x="284" d="M45 92v1165h41v-1165q0 -25 16 -41t41 -16q23 0 38.5 16.5t15.5 40.5v1165h43v-1165q0 -41 -29 -69.5t-68 -28.5q-40 0 -69 28.5t-29 69.5z" />
<glyph unicode="V" horiz-adv-x="301" d="M29 1260h41l80 -1164l79 1164h41l-92 -1260h-57z" />
<glyph unicode="W" horiz-adv-x="444" d="M51 90v1167h43v-1165q0 -24 15 -40.5t38 -16.5t40.5 15.5t17.5 41.5v1165h41v-1165q0 -25 16 -41t39 -16q24 0 39.5 16.5t15.5 40.5v1165h43v-1167q0 -40 -28 -68t-68 -28q-57 0 -78 47q-24 -47 -80 -47q-40 0 -67 28t-27 68z" />
<glyph unicode="X" horiz-adv-x="294" d="M37 0l61 373l-59 884h41q6 -106 53 -868h27q8 145 53 868h39q-8 -137 -59 -884q38 -235 63 -373h-43l-53 350h-15h-14l-53 -350h-41z" />
<glyph unicode="Y" horiz-adv-x="299" d="M29 1257h41l77 -831l78 831h41l-98 -954v-303h-41v303z" />
<glyph unicode="Z" horiz-adv-x="296" d="M45 1219v38h205q-27 -203 -78.5 -608t-77.5 -608h154v-41h-201q28 212 79.5 618.5t76.5 600.5h-158z" />
<glyph unicode="\" horiz-adv-x="270" d="M16 1333h43l189 -1474h-43z" />
<glyph unicode="_" horiz-adv-x="462" d="M33 -43h397v-33h-397v33z" />
<glyph unicode="a" horiz-adv-x="299" d="M23 348v41h36l66 871h57l92 -1260h-41l-24 348h-113l-24 -348h-41l26 348h-34zM98 389h107l-53 774z" />
<glyph unicode="b" horiz-adv-x="294" d="M10 350v39h39v871h96q40 0 69.5 -29.5t29.5 -67.5v-712q0 -25 -13.5 -47.5t-35.5 -32.5q49 -27 49 -82v-191q0 -41 -29.5 -69.5t-69.5 -28.5h-96v350h-39zM90 41h55q23 0 39.5 16.5t16.5 40.5v195q0 25 -16.5 41t-39.5 16h-55v-309zM90 389h55q23 0 39.5 17t16.5 40v717 q0 23 -16.5 39.5t-39.5 16.5h-55v-830z" />
<glyph unicode="c" horiz-adv-x="280" d="M45 92v1075q0 40 28.5 69.5t69.5 29.5q38 0 67.5 -29.5t29.5 -69.5v-229h-43v229q0 24 -16 41t-38 17q-25 0 -41 -16.5t-16 -41.5v-1075q0 -24 16.5 -40.5t40.5 -16.5q22 0 38 17t16 40v258h43v-258q0 -41 -29 -69.5t-68 -28.5q-41 0 -69.5 28.5t-28.5 69.5z" />
<glyph unicode="d" horiz-adv-x="284" d="M45 0v1260h96q40 0 69.5 -29.5t29.5 -67.5v-1065q0 -41 -29.5 -69.5t-69.5 -28.5h-96zM86 41h55q23 0 39.5 16.5t16.5 40.5v1065q0 23 -16.5 39.5t-39.5 16.5h-55v-1178z" />
<glyph unicode="e" horiz-adv-x="237" d="M10 350v39h39v871h154v-41h-113v-830h105v-39h-105v-309h113v-41h-154v350h-39z" />
<glyph unicode="f" horiz-adv-x="229" d="M10 350v39h37v868h154v-38h-113v-830h105v-39h-105v-350h-41v350h-37z" />
<glyph unicode="g" horiz-adv-x="280" d="M45 92v1075q0 40 28.5 69.5t69.5 29.5q40 0 68.5 -29.5t28.5 -69.5v-229h-41v229q0 25 -15.5 41.5t-40.5 16.5t-41 -16.5t-16 -41.5v-1075q0 -24 16.5 -40.5t40.5 -16.5t40 16.5t16 40.5v246h-58v39h99v-285q0 -41 -28.5 -69.5t-68.5 -28.5q-41 0 -69.5 28.5t-28.5 69.5z " />
<glyph unicode="h" horiz-adv-x="272" d="M8 350v39h39v868h41v-868h98v868h41v-1257h-41v350h-98v-350h-41v350h-39z" />
<glyph unicode="i" horiz-adv-x="145" d="M43 0v1260h41v-1260h-41z" />
<glyph unicode="j" horiz-adv-x="253" d="M33 86v236h41v-236q0 -25 14 -39t37 -14t38 15t15 38v1174h41v-1174q0 -40 -27 -66t-67 -26q-41 0 -66.5 26t-25.5 66z" />
<glyph unicode="k" horiz-adv-x="315" d="M10 350v39h37v868h41v-868h45l115 868h39q-44 -314 -119 -884q22 -62 63 -186t62 -187h-43q-19 58 -58 175t-57 175h-47v-350h-41v350h-37z" />
<glyph unicode="l" horiz-adv-x="217" d="M45 0v1260h41v-1219h115v-41h-156z" />
<glyph unicode="m" horiz-adv-x="446" d="M49 0v1167q0 40 27.5 68.5t66.5 28.5q56 0 80 -47q21 47 78 47q40 0 68 -28.5t28 -68.5v-1167h-43v1165q0 24 -15.5 41t-39.5 17q-23 0 -39 -16.5t-16 -41.5v-1165h-41v1165q0 26 -17.5 42t-40.5 16t-38 -17t-15 -41v-1165h-43z" />
<glyph unicode="n" horiz-adv-x="290" d="M45 0v1257h96q40 0 69.5 -28.5t29.5 -67.5v-1161h-43v1161q0 25 -16.5 41.5t-39.5 16.5h-55v-1219h-41z" />
<glyph unicode="o" d="M45 92v1075q0 40 29 69.5t69 29.5q38 0 67.5 -29.5t29.5 -69.5v-1075q0 -41 -29 -69.5t-68 -28.5q-40 0 -69 28.5t-29 69.5zM86 92q0 -24 16.5 -40.5t40.5 -16.5q23 0 38.5 16.5t15.5 40.5v1075q0 25 -15.5 41.5t-38.5 16.5q-25 0 -41 -16.5t-16 -41.5v-1075z" />
<glyph unicode="p" horiz-adv-x="292" d="M10 350v39h37v871h98q39 0 68 -29t29 -68v-717q0 -40 -28.5 -68t-68.5 -28h-57v-350h-41v350h-37zM88 389h57q23 0 38.5 16.5t15.5 40.5v717q0 23 -15.5 39.5t-38.5 16.5h-57v-830z" />
<glyph unicode="q" horiz-adv-x="284" d="M45 92v1075q0 40 29 69.5t69 29.5q38 0 67.5 -29.5t29.5 -69.5v-1075q0 -35 -22.5 -61.5t-53.5 -32.5v-29q0 -23 16.5 -38t38.5 -15h14v-37h-14q-40 0 -69 25t-29 65v27q-33 8 -54.5 34.5t-21.5 61.5zM86 92q0 -24 16.5 -40.5t40.5 -16.5q23 0 38.5 16.5t15.5 40.5v1075 q0 25 -15.5 41.5t-38.5 16.5q-25 0 -41 -16.5t-16 -41.5v-1075z" />
<glyph unicode="r" horiz-adv-x="294" d="M12 350v39h35v871h98q39 0 68 -29t29 -68v-712q0 -56 -47 -82q47 -23 47 -80v-289h-41v293q0 25 -16.5 41t-39.5 16h-55v-350h-43v350h-35zM90 389h55q23 0 39.5 17t16.5 40v717q0 23 -16.5 39.5t-39.5 16.5h-55v-830z" />
<glyph unicode="s" d="M45 129v215h41v-252q0 -24 15.5 -40.5t39.5 -16.5t41 16.5t17 40.5v160q0 104 -72 264l-21 47q-61 137 -61 242v328q0 63 20 97t74 34q41 0 66.5 -26.5t25.5 -66.5v-235h-41v235q0 25 -14 39.5t-37 14.5t-38 -14.5t-15 -39.5v-366q0 -63 18.5 -121.5t53.5 -134.5 q2 -5 16 -38t17.5 -41.5t14.5 -37t14.5 -44t9.5 -40.5t8 -48t2 -48v-119q0 -139 -99 -139q-96 0 -96 135z" />
<glyph unicode="t" horiz-adv-x="231" d="M18 1219v38h193v-38h-76v-1219h-43v1219h-74z" />
<glyph unicode="u" horiz-adv-x="284" d="M45 92v1165h41v-1165q0 -25 16 -41t41 -16q23 0 38.5 16.5t15.5 40.5v1165h43v-1165q0 -41 -29 -69.5t-68 -28.5q-40 0 -69 28.5t-29 69.5z" />
<glyph unicode="v" horiz-adv-x="301" d="M29 1260h41l80 -1164l79 1164h41l-92 -1260h-57z" />
<glyph unicode="w" horiz-adv-x="444" d="M51 90v1167h43v-1165q0 -24 15 -40.5t38 -16.5t40.5 15.5t17.5 41.5v1165h41v-1165q0 -25 16 -41t39 -16q24 0 39.5 16.5t15.5 40.5v1165h43v-1167q0 -40 -28 -68t-68 -28q-57 0 -78 47q-24 -47 -80 -47q-40 0 -67 28t-27 68z" />
<glyph unicode="x" horiz-adv-x="294" d="M37 0l61 373l-59 884h41q6 -106 53 -868h27q8 145 53 868h39q-8 -137 -59 -884q38 -235 63 -373h-43l-53 350h-15h-14l-53 -350h-41z" />
<glyph unicode="y" horiz-adv-x="299" d="M29 1257h41l77 -831l78 831h41l-98 -954v-303h-41v303z" />
<glyph unicode="z" horiz-adv-x="296" d="M45 1219v38h205q-27 -203 -78.5 -608t-77.5 -608h154v-41h-201q28 212 79.5 618.5t76.5 600.5h-158z" />
<glyph unicode="&#xad;" d="M57 475v43h166v-43h-166z" />
<glyph unicode="&#x2000;" horiz-adv-x="676" />
<glyph unicode="&#x2001;" horiz-adv-x="1352" />
<glyph unicode="&#x2002;" horiz-adv-x="676" />
<glyph unicode="&#x2003;" horiz-adv-x="1352" />
<glyph unicode="&#x2004;" horiz-adv-x="450" />
<glyph unicode="&#x2005;" horiz-adv-x="338" />
<glyph unicode="&#x2006;" horiz-adv-x="225" />
<glyph unicode="&#x2007;" horiz-adv-x="225" />
<glyph unicode="&#x2008;" horiz-adv-x="169" />
<glyph unicode="&#x2009;" horiz-adv-x="270" />
<glyph unicode="&#x200a;" horiz-adv-x="75" />
<glyph unicode="&#x2010;" d="M57 475v43h166v-43h-166z" />
<glyph unicode="&#x2011;" d="M57 475v43h166v-43h-166z" />
<glyph unicode="&#x2012;" d="M57 475v43h166v-43h-166z" />
<glyph unicode="&#x2013;" horiz-adv-x="1140" d="M57 475v43h1024v-43h-1024z" />
<glyph unicode="&#x2014;" horiz-adv-x="2164" d="M57 475v43h2048v-43h-2048z" />
<glyph unicode="&#x2018;" horiz-adv-x="192" d="M41 1315h45l68 -219h-45z" />
<glyph unicode="&#x2019;" horiz-adv-x="192" d="M41 1094l68 219h45l-68 -219h-45z" />
<glyph unicode="&#x201c;" horiz-adv-x="294" d="M41 1313h45l68 -219h-45zM141 1313h45l68 -219h-45z" />
<glyph unicode="&#x201d;" horiz-adv-x="301" d="M43 1094l68 219h45l-68 -219h-45zM143 1094l68 219h45l-68 -219h-45z" />
<glyph unicode="&#x2026;" horiz-adv-x="722" d="M100 0v123h45v-123h-45zM342 0v123h45v-123h-45zM582 0v123h47v-123h-47z" />
<glyph unicode="&#x202f;" horiz-adv-x="270" />
<glyph unicode="&#x205f;" horiz-adv-x="338" />
<glyph unicode="&#xe000;" horiz-adv-x="1259" d="M0 0v1260h1260v-1260h-1260z" />
</font>
</defs>
</svg>
